# xmcd CD database file
#
# Track frame offsets:
#	150
#	13053
#	23823
#	36072
#	46139
#	57453
#	68663
#	83721
#	96603
#	108019
#	120107
#	133850
#	146150
#	161736
#
# Disc length: 2286 seconds
#
# Revision: 0
# Processed by: cddbd v1.5.2PL0 Copyright (c) Steve Scherf et al.
# Submitted via: CDex 1.51
#
DISCID=b808ec0e
DTITLE=Kenny Rogers and Dolly Parton - Legends Of The 20th Century CD8
DYEAR=2009
DGENRE=Country
TTITLE0=Ruby (Don't Take Your Love To Town) - Keny Rogers
TTITLE1=It Wasn't God Who Made Honkytown Angels - Dolly Parton
TTITLE2=Ruben James - Kenny Rogers
TTITLE3=Release Me - Dolly Parton
TTITLE4=Me And Bobby Mcgee - Kenny Rogers
TTITLE5=Makin' Believe - Dolly Parton
TTITLE6=For The Good Times - Kenny Rogers
TTITLE7=Little Blossom - Dolly Parton
TTITLE8=Poem For A Little Lady - Kenny Rogers
TTITLE9=Two Little Orphans - Dolly Parton
TTITLE10=I'm Gonna Sing You A Sad Song Suzy - Kenny Rogers
TTITLE11=Letter To Heaven - Dolly Parton
TTITLE12=My Washington Lady - Kenny Rogers
TTITLE13=Girl Left Alone - Dolly Parton
EXTD=YEAR: 2009
EXTT0=
EXTT1=
EXTT2=
EXTT3=
EXTT4=
EXTT5=
EXTT6=
EXTT7=
EXTT8=
EXTT9=
EXTT10=
EXTT11=
EXTT12=
EXTT13=
PLAYORDER=
